<?xml version="1.0" standalone="no"?>
<!DOCTYPE svg PUBLIC "-//W3C//DTD SVG 20010904//EN"
 "http://www.w3.org/TR/2001/REC-SVG-20010904/DTD/svg10.dtd">
<svg version="1.0" xmlns="http://www.w3.org/2000/svg"
 width="16.000000pt" height="16.000000pt" viewBox="0 0 16.000000 16.000000"
 preserveAspectRatio="xMidYMid meet">
<metadata>
Created by potrace 1.11, written by Peter Selinger 2001-2013
</metadata>
<g transform="translate(0.000000,16.000000) scale(0.006154,-0.006154)"
fill="#000000" stroke="none">
<path d="M197 2586 c-117 -42 -197 -147 -197 -261 0 -89 82 -253 172 -344 146
-148 307 -215 818 -340 396 -97 555 -156 714 -264 69 -46 164 -139 202 -197
15 -22 28 -39 30 -37 1 1 -10 43 -27 92 -73 222 -125 491 -135 694 -13 260 44
487 158 624 l39 47 -868 0 c-704 -1 -875 -3 -906 -14z m1105 -317 c122 -26
243 -124 298 -241 48 -101 34 -130 -31 -62 -37 39 -126 102 -173 122 -21 10
-32 10 -42 1 -26 -21 -14 -38 55 -84 68 -45 140 -114 176 -169 l19 -29 -34
-29 c-94 -79 -188 -95 -273 -45 -78 46 -115 85 -192 202 -90 136 -147 201
-214 240 -28 17 -51 33 -51 38 -1 43 333 83 462 56z"/>
<path d="M2358 2583 c7 -3 16 -2 19 1 4 3 -2 6 -13 5 -11 0 -14 -3 -6 -6z"/>
<path d="M2421 2566 c2 -2 15 -9 29 -15 24 -11 24 -11 6 3 -16 13 -49 24 -35
12z"/>
<path d="M2170 2539 c-43 -26 -95 -74 -122 -114 -12 -16 0 -6 26 23 26 28 68
64 92 78 24 14 44 28 44 30 0 6 -3 5 -40 -17z"/>
<path d="M2480 2537 c0 -2 15 -16 33 -33 l32 -29 -29 33 c-28 30 -36 37 -36
29z"/>
<path d="M2551 2450 c14 -31 19 -36 19 -24 0 6 -7 19 -16 30 -14 18 -14 18 -3
-6z"/>
<path d="M2582 1528 c-2 -742 -4 -858 -17 -858 -7 0 -19 8 -25 17 -11 17 -11
17 -6 0 3 -10 6 -21 6 -23 0 -10 41 -3 45 8 3 7 4 396 3 863 l-3 850 -3 -857z"/>
<path d="M1971 2254 c0 -11 3 -14 6 -6 3 7 2 16 -1 19 -3 4 -6 -2 -5 -13z"/>
<path d="M1962 2195 c0 -16 2 -22 5 -12 2 9 2 23 0 30 -3 6 -5 -1 -5 -18z"/>
<path d="M2240 2170 c-20 -6 -21 -8 -5 -8 11 0 34 4 50 8 27 7 27 8 5 8 -14 0
-36 -4 -50 -8z"/>
<path d="M2403 2173 c9 -2 25 -2 35 0 9 3 1 5 -18 5 -19 0 -27 -2 -17 -5z"/>
<path d="M2473 2163 c9 -2 23 -2 30 0 6 3 -1 5 -18 5 -16 0 -22 -2 -12 -5z"/>
<path d="M2174 2144 c-18 -14 -18 -14 6 -3 31 14 36 19 24 19 -6 0 -19 -7 -30
-16z"/>
<path d="M1953 2080 c0 -36 2 -50 4 -32 2 17 2 47 0 65 -2 17 -4 3 -4 -33z"/>
<path d="M2114 2098 c-17 -18 -38 -46 -48 -63 -16 -29 -16 -29 1 -7 10 13 33
41 52 63 40 47 37 52 -5 7z"/>
<path d="M2480 2099 l-35 -30 38 26 c33 24 43 35 34 35 -1 0 -18 -14 -37 -31z"/>
<path d="M2429 2043 c-13 -16 -12 -17 4 -4 9 7 17 15 17 17 0 8 -8 3 -21 -13z"/>
<path d="M2170 2029 l-25 -21 27 16 c36 21 46 20 51 -6 5 -20 5 -20 4 2 -2 32
-25 35 -57 9z"/>
<path d="M2391 1984 c-12 -20 -20 -38 -18 -40 2 -2 14 14 26 36 28 50 21 53
-8 4z"/>
<path d="M2110 1987 c-31 -28 -65 -67 -59 -67 3 0 25 20 49 45 46 47 52 60 10
22z"/>
<path d="M2035 1970 c-4 -17 -5 -34 -2 -36 2 -3 7 10 11 27 3 18 4 34 2 36 -2
3 -7 -10 -11 -27z"/>
<path d="M2159 1959 l-44 -41 48 38 c26 21 47 40 47 41 0 8 -11 0 -51 -38z"/>
<path d="M1962 1960 c0 -19 2 -27 5 -17 2 9 2 25 0 35 -3 9 -5 1 -5 -18z"/>
<path d="M2089 1893 c-13 -16 -12 -17 4 -4 9 7 17 15 17 17 0 8 -8 3 -21 -13z"/>
<path d="M1972 1880 c0 -14 2 -19 5 -12 2 6 2 18 0 25 -3 6 -5 1 -5 -13z"/>
<path d="M2304 1848 l-29 -33 33 29 c30 28 37 36 29 36 -2 0 -16 -15 -33 -32z"/>
<path d="M2 1038 l3 -824 30 -59 c36 -70 99 -120 177 -141 43 -11 195 -14 819
-14 l766 0 12 53 c19 78 22 307 5 402 -43 241 -143 435 -301 586 -130 124
-268 199 -598 323 -428 161 -564 223 -704 317 -47 32 -114 85 -149 119 l-62
62 2 -824z m1188 -4 c147 -45 255 -108 338 -199 43 -46 48 -60 33 -84 -7 -11
-22 -8 -84 17 -88 35 -200 62 -277 65 -49 2 -55 0 -58 -19 -3 -19 5 -24 75
-39 104 -22 210 -59 309 -106 104 -49 111 -57 95 -112 -37 -126 -120 -235
-216 -286 -45 -23 -60 -26 -150 -25 -160 1 -232 26 -440 155 -260 160 -427
229 -559 229 -49 0 -70 15 -56 41 13 24 136 123 230 185 298 199 519 250 760
178z"/>
<path d="M1981 1834 c0 -11 3 -14 6 -6 3 7 2 16 -1 19 -3 4 -6 -2 -5 -13z"/>
<path d="M2075 1831 c6 -11 75 -44 80 -39 2 2 -16 13 -41 25 -25 12 -42 18
-39 14z"/>
<path d="M1992 1790 c0 -14 2 -19 5 -12 2 6 2 18 0 25 -3 6 -5 1 -5 -13z"/>
<path d="M2178 1783 c6 -2 18 -2 25 0 6 3 1 5 -13 5 -14 0 -19 -2 -12 -5z"/>
<path d="M2021 1690 c0 -8 4 -22 9 -30 12 -18 12 -2 0 25 -6 13 -9 15 -9 5z"/>
<path d="M2051 1610 c0 -14 28 -72 29 -59 0 4 -7 22 -15 40 -8 19 -14 27 -14
19z"/>
<path d="M2080 1531 c0 -6 4 -13 10 -16 6 -3 7 1 4 9 -7 18 -14 21 -14 7z"/>
<path d="M2110 1471 c0 -6 4 -13 10 -16 6 -3 7 1 4 9 -7 18 -14 21 -14 7z"/>
<path d="M2183 1345 c9 -16 23 -39 32 -50 9 -11 7 -2 -6 20 -27 49 -47 72 -26
30z"/>
<path d="M2280 1183 c0 -6 8 -17 18 -24 16 -13 16 -13 2 6 -8 11 -16 22 -17
24 -2 2 -3 0 -3 -6z"/>
<path d="M2310 1133 c0 -6 8 -17 18 -24 16 -13 16 -13 2 6 -8 11 -16 22 -17
24 -2 2 -3 0 -3 -6z"/>
<path d="M2340 1088 c0 -9 41 -78 46 -78 3 0 -2 12 -10 28 -21 37 -36 58 -36
50z"/>
<path d="M2430 920 c11 -22 23 -40 25 -40 3 0 -4 18 -15 40 -11 22 -23 40 -25
40 -3 0 4 -18 15 -40z"/>
<path d="M2462 860 c21 -58 62 -149 65 -146 5 4 -54 147 -64 156 -3 3 -4 -2
-1 -10z"/>
</g>
</svg>
